<svg width="512" height="512" viewBox="0 0 512 512" fill="none" xmlns="http://www.w3.org/2000/svg">
<rect width="512" height="512" rx="256" fill="#0D0D0D"/>
<path d="M222.494 237.64C235.507 209.907 242.014 193.8 242.014 189.32C242.014 186.973 242.76 184.947 244.254 183.24C245.747 181.533 247.134 179.827 248.414 178.12C249.907 176.413 250.654 174.28 250.654 171.72C248.947 166.813 243.454 165.8 234.174 168.68C224.894 171.56 218.974 174.173 216.414 176.52C207.88 183.56 198.547 185.747 188.414 183.08C178.28 180.413 173.214 174.387 173.214 165C173.214 161.373 177.694 156.307 186.654 149.8C195.614 143.293 202.76 140.04 208.094 140.04C211.294 140.04 218.547 137.64 229.854 132.84C241.16 128.04 247.24 125.64 248.094 125.64C253 124.36 269.64 124.2 298.014 125.16C326.387 126.12 347.72 127.667 362.014 129.8C375.027 131.507 389.214 138.44 404.574 150.6C424.2 164.68 433.8 179.347 433.374 194.6C432.947 209.853 422.814 231.88 402.974 260.68C393.16 274.547 385.374 285 379.614 292.04C374.067 299.08 369.427 304.04 365.694 306.92C361.96 309.8 358.494 311.24 355.294 311.24C349.747 311.24 344.52 313.693 339.614 318.6C331.08 328.2 315.24 337.16 292.094 345.48C268.947 353.8 250.654 357.213 237.214 355.72C233.16 355.72 229.694 355.507 226.814 355.08C223.934 354.653 221.214 355.293 218.654 357C215.88 358.493 213.534 360.093 211.614 361.8C209.694 363.293 207.56 366.173 205.214 370.44C203.08 374.92 200.947 379.507 198.814 384.2C196.894 389.107 194.44 395.613 191.454 403.72C187.827 414.387 185 421.907 182.974 426.28C180.947 430.653 178.92 433.693 176.894 435.4C174.867 437.107 172.254 437.96 169.054 437.96C162.227 437.96 156.787 434.227 152.734 426.76C149.747 421.64 148.787 416.84 149.854 412.36C150.92 407.88 155.08 397.96 162.334 382.6C172.574 360.627 177.054 348.36 175.774 345.8C174.067 343.88 165.747 343.56 150.814 344.84C140.147 345.48 133.214 345.32 130.014 344.36C126.814 343.4 123.614 340.253 120.414 334.92C116.787 329.373 114.974 325.587 114.974 323.56C114.974 321.533 117 317.853 121.054 312.52C125.96 305.48 136.68 299.24 153.214 293.8C169.747 288.36 180.254 287.453 184.734 291.08C187.72 293.213 191.614 293.053 196.414 290.6C201.214 288.147 203.614 285.107 203.614 281.48C203.614 278.493 209.907 263.88 222.494 237.64ZM393.694 189.32C391.987 180.787 390.227 175.347 388.414 173C386.6 170.653 382.494 167.56 376.094 163.72C368.84 160.093 357.107 157.533 340.894 156.04C318.067 153.907 302.28 154.973 293.534 159.24C284.787 163.507 280.414 172.147 280.414 185.16C280.414 194.973 279.027 200.68 276.254 202.28C273.48 203.88 272.094 207.133 272.094 212.04C272.094 218.013 258.44 248.627 231.134 303.88C225.16 316.467 228.36 322.76 240.734 322.76C249.054 322.76 259.507 320.093 272.094 314.76C318.6 295.773 354.227 266.973 378.974 228.36C386.44 217.907 391.08 210.12 392.894 205C394.707 199.88 394.974 194.653 393.694 189.32Z" fill="#CE5A67"/>
</svg>
